<?xml version="1.0" standalone="no"?>
<svg xmlns:xlink="http://www.w3.org/1999/xlink" id="wave" style="transform:rotate(0deg); transition: 0.3s" viewBox="0 0 1440 490" version="1.1" xmlns="http://www.w3.org/2000/svg"><defs><linearGradient id="sw-gradient-0" x1="0" x2="0" y1="1" y2="0"><stop stop-color="rgba(243, 106, 62, 1)" offset="0%"/><stop stop-color="rgba(255, 179, 11, 1)" offset="100%"/></linearGradient></defs><path style="transform:translate(0, 0px); opacity:1" fill="url(#sw-gradient-0)" d="M0,147L80,147C160,147,320,147,480,179.7C640,212,800,278,960,253.2C1120,229,1280,114,1440,81.7C1600,49,1760,98,1920,106.2C2080,114,2240,82,2400,122.5C2560,163,2720,278,2880,326.7C3040,376,3200,359,3360,343C3520,327,3680,310,3840,294C4000,278,4160,261,4320,220.5C4480,180,4640,114,4800,73.5C4960,33,5120,16,5280,24.5C5440,33,5600,65,5760,122.5C5920,180,6080,261,6240,253.2C6400,245,6560,147,6720,138.8C6880,131,7040,212,7200,204.2C7360,196,7520,98,7680,81.7C7840,65,8000,131,8160,196C8320,261,8480,327,8640,318.5C8800,310,8960,229,9120,171.5C9280,114,9440,82,9600,106.2C9760,131,9920,212,10080,212.3C10240,212,10400,131,10560,81.7C10720,33,10880,16,11040,8.2C11200,0,11360,0,11440,0L11520,0L11520,490L11440,490C11360,490,11200,490,11040,490C10880,490,10720,490,10560,490C10400,490,10240,490,10080,490C9920,490,9760,490,9600,490C9440,490,9280,490,9120,490C8960,490,8800,490,8640,490C8480,490,8320,490,8160,490C8000,490,7840,490,7680,490C7520,490,7360,490,7200,490C7040,490,6880,490,6720,490C6560,490,6400,490,6240,490C6080,490,5920,490,5760,490C5600,490,5440,490,5280,490C5120,490,4960,490,4800,490C4640,490,4480,490,4320,490C4160,490,4000,490,3840,490C3680,490,3520,490,3360,490C3200,490,3040,490,2880,490C2720,490,2560,490,2400,490C2240,490,2080,490,1920,490C1760,490,1600,490,1440,490C1280,490,1120,490,960,490C800,490,640,490,480,490C320,490,160,490,80,490L0,490Z"/><defs><linearGradient id="sw-gradient-1" x1="0" x2="0" y1="1" y2="0"><stop stop-color="rgba(243, 106, 62, 1)" offset="0%"/><stop stop-color="rgba(255, 179, 11, 1)" offset="100%"/></linearGradient></defs><path style="transform:translate(0, 50px); opacity:0.9" fill="url(#sw-gradient-1)" d="M0,245L80,245C160,245,320,245,480,204.2C640,163,800,82,960,40.8C1120,0,1280,0,1440,65.3C1600,131,1760,261,1920,285.8C2080,310,2240,229,2400,228.7C2560,229,2720,310,2880,343C3040,376,3200,359,3360,367.5C3520,376,3680,408,3840,359.3C4000,310,4160,180,4320,138.8C4480,98,4640,147,4800,204.2C4960,261,5120,327,5280,310.3C5440,294,5600,196,5760,155.2C5920,114,6080,131,6240,130.7C6400,131,6560,114,6720,155.2C6880,196,7040,294,7200,302.2C7360,310,7520,229,7680,196C7840,163,8000,180,8160,179.7C8320,180,8480,163,8640,171.5C8800,180,8960,212,9120,245C9280,278,9440,310,9600,334.8C9760,359,9920,376,10080,318.5C10240,261,10400,131,10560,138.8C10720,147,10880,294,11040,351.2C11200,408,11360,376,11440,359.3L11520,343L11520,490L11440,490C11360,490,11200,490,11040,490C10880,490,10720,490,10560,490C10400,490,10240,490,10080,490C9920,490,9760,490,9600,490C9440,490,9280,490,9120,490C8960,490,8800,490,8640,490C8480,490,8320,490,8160,490C8000,490,7840,490,7680,490C7520,490,7360,490,7200,490C7040,490,6880,490,6720,490C6560,490,6400,490,6240,490C6080,490,5920,490,5760,490C5600,490,5440,490,5280,490C5120,490,4960,490,4800,490C4640,490,4480,490,4320,490C4160,490,4000,490,3840,490C3680,490,3520,490,3360,490C3200,490,3040,490,2880,490C2720,490,2560,490,2400,490C2240,490,2080,490,1920,490C1760,490,1600,490,1440,490C1280,490,1120,490,960,490C800,490,640,490,480,490C320,490,160,490,80,490L0,490Z"/><defs><linearGradient id="sw-gradient-2" x1="0" x2="0" y1="1" y2="0"><stop stop-color="rgba(243, 106, 62, 1)" offset="0%"/><stop stop-color="rgba(255, 179, 11, 1)" offset="100%"/></linearGradient></defs><path style="transform:translate(0, 100px); opacity:0.8" fill="url(#sw-gradient-2)" d="M0,294L80,310.3C160,327,320,359,480,334.8C640,310,800,229,960,187.8C1120,147,1280,147,1440,187.8C1600,229,1760,310,1920,285.8C2080,261,2240,131,2400,73.5C2560,16,2720,33,2880,57.2C3040,82,3200,114,3360,155.2C3520,196,3680,245,3840,277.7C4000,310,4160,327,4320,334.8C4480,343,4640,343,4800,326.7C4960,310,5120,278,5280,261.3C5440,245,5600,245,5760,212.3C5920,180,6080,114,6240,73.5C6400,33,6560,16,6720,81.7C6880,147,7040,294,7200,294C7360,294,7520,147,7680,130.7C7840,114,8000,229,8160,236.8C8320,245,8480,147,8640,155.2C8800,163,8960,278,9120,343C9280,408,9440,425,9600,400.2C9760,376,9920,310,10080,277.7C10240,245,10400,245,10560,253.2C10720,261,10880,278,11040,310.3C11200,343,11360,392,11440,416.5L11520,441L11520,490L11440,490C11360,490,11200,490,11040,490C10880,490,10720,490,10560,490C10400,490,10240,490,10080,490C9920,490,9760,490,9600,490C9440,490,9280,490,9120,490C8960,490,8800,490,8640,490C8480,490,8320,490,8160,490C8000,490,7840,490,7680,490C7520,490,7360,490,7200,490C7040,490,6880,490,6720,490C6560,490,6400,490,6240,490C6080,490,5920,490,5760,490C5600,490,5440,490,5280,490C5120,490,4960,490,4800,490C4640,490,4480,490,4320,490C4160,490,4000,490,3840,490C3680,490,3520,490,3360,490C3200,490,3040,490,2880,490C2720,490,2560,490,2400,490C2240,490,2080,490,1920,490C1760,490,1600,490,1440,490C1280,490,1120,490,960,490C800,490,640,490,480,490C320,490,160,490,80,490L0,490Z"/></svg>