<svg xmlns="http://www.w3.org/2000/svg" style="transform:rotate(0deg);transition:.3s" viewBox="0 0 1440 490"><defs><linearGradient id="a" x1="0" x2="0" y1="1" y2="0"><stop offset="0%" stop-color="rgba(243, 106, 62, 1)"/><stop offset="100%" stop-color="rgba(255, 179, 11, 1)"/></linearGradient></defs><path fill="url(#a)" d="M0 147h80c80 0 240 0 400 32.7C640 212 800 278 960 253.2 1120 229 1280 114 1440 81.7c160-32.7 320 16.3 480 24.5 160 7.8 320-24.2 480 16.3s320 155.5 480 204.2c160 49.3 320 32.3 480 16.3 160-16 320-33 480-49s320-33 480-73.5 320-106.5 480-147 320-57.5 480-49 320 40.5 480 98 320 138.5 480 130.7c160-8.2 320-106.2 480-114.4 160-7.8 320 73.2 480 65.4C7360 196 7520 98 7680 81.7 7840 65 8000 131 8160 196s320 131 480 122.5 320-89.5 480-147 320-89.5 480-65.3c160 24.8 320 105.8 480 106.1 160-.3 320-81.3 480-130.6 160-48.7 320-65.7 480-73.5 160-8.2 320-8.2 400-8.2h80v490H0Z" style="transform:translate(0,0);opacity:1"/><defs><linearGradient id="b" x1="0" x2="0" y1="1" y2="0"><stop offset="0%" stop-color="rgba(243, 106, 62, 1)"/><stop offset="100%" stop-color="rgba(255, 179, 11, 1)"/></linearGradient></defs><path fill="url(#b)" d="M0 245h80c80 0 240 0 400-40.8C640 163 800 82 960 40.8 1120 0 1280 0 1440 65.3c160 65.7 320 195.7 480 220.5 160 24.2 320-56.8 480-57.1 160 .3 320 81.3 480 114.3s320 16 480 24.5 320 40.5 480-8.2c160-49.3 320-179.3 480-220.5 160-40.8 320 8.2 480 65.4 160 56.8 320 122.8 480 106.1 160-16.3 320-114.3 480-155.1 160-41.2 320-24.2 480-24.5 160 .3 320-16.7 480 24.5 160 40.8 320 138.8 480 147 160 7.8 320-73.2 480-106.2s320-16 480-16.3c160 .3 320-16.7 480-8.2s320 40.5 480 73.5 320 65 480 89.8c160 24.2 320 41.2 480-16.3s320-187.5 480-179.7c160 8.2 320 155.2 480 212.4 160 56.8 320 24.8 400 8.1l80-16.3v147H0Z" style="transform:translate(0,50px);opacity:.9"/><defs><linearGradient id="c" x1="0" x2="0" y1="1" y2="0"><stop offset="0%" stop-color="rgba(243, 106, 62, 1)"/><stop offset="100%" stop-color="rgba(255, 179, 11, 1)"/></linearGradient></defs><path fill="url(#c)" d="m0 294 80 16.3c80 16.7 240 48.7 400 24.5C640 310 800 229 960 187.8c160-40.8 320-40.8 480 0 160 41.2 320 122.2 480 98C2080 261 2240 131 2400 73.5s320-40.5 480-16.3c160 24.8 320 56.8 480 98 160 40.8 320 89.8 480 122.5 160 32.3 320 49.3 480 57.1 160 8.2 320 8.2 480-8.1 160-16.7 320-48.7 480-65.4 160-16.3 320-16.3 480-49 160-32.3 320-98.3 480-138.8 160-40.5 320-57.5 480 8.2C6880 147 7040 294 7200 294s320-147 480-163.3c160-16.7 320 98.3 480 106.1 160 8.2 320-89.8 480-81.6C8800 163 8960 278 9120 343c160 65 320 82 480 57.2 160-24.2 320-90.2 480-122.5 160-32.7 320-32.7 480-24.5 160 7.8 320 24.8 480 57.1 160 32.7 320 81.7 400 106.2l80 24.5v49H0Z" style="transform:translate(0,100px);opacity:.8"/></svg>